<?xml version="1.0" encoding="iso-8859-1"?>
<!-- Generator: Adobe Illustrator 19.0.0, SVG Export Plug-In . SVG Version: 6.00 Build 0)  -->
<svg version="1.1" id="Capa_1" xmlns="http://www.w3.org/2000/svg" xmlns:xlink="http://www.w3.org/1999/xlink" x="0px" y="0px"
	 viewBox="0 0 512 512" style="enable-background:new 0 0 512 512;" xml:space="preserve">
<g>
	<path style="fill:#FF7452;" d="M92.5,0C63.551,0,40,23.552,40,52.5v407h75V0H92.5z"/>
	<polygon style="fill:#FF7452;" points="472,0 346,0 181,60 181,438.146 472,407 	"/>
</g>
<polygon style="fill:#FB9D46;" points="115,0 115,459.5 286,459.5 286,45 226,0 "/>
<rect x="256" y="422" style="fill:#F7EDBC;" width="186" height="75"/>
<path style="fill:#FFFFFF;" d="M92.5,422C71.789,422,55,438.789,55,459.5S71.789,497,92.5,497H286v-75H92.5z"/>
<g>
	<polygon style="fill:#E24642;" points="472,512 472,482 286,482 266,497 286,512 	"/>
	<polygon style="fill:#E24642;" points="472,437 472,407 286,407 266,422 286,437 	"/>
</g>
<path style="fill:#F15D4A;" d="M70,459.5c0-12.406,10.093-22.5,22.5-22.5H286v-30H92.5C63.551,407,40,430.552,40,459.5
	S63.551,512,92.5,512H286v-30H92.5C80.093,482,70,471.906,70,459.5z"/>
<polygon style="fill:#C42725;" points="286,0 251,130.606 286,261.213 346,321.213 346,0 "/>
<polygon style="fill:#D33734;" points="226,0 226,321.213 286,261.213 286,0 "/>
<g>
</g>
<g>
</g>
<g>
</g>
<g>
</g>
<g>
</g>
<g>
</g>
<g>
</g>
<g>
</g>
<g>
</g>
<g>
</g>
<g>
</g>
<g>
</g>
<g>
</g>
<g>
</g>
<g>
</g>
</svg>
